<svg preserveAspectRatio="none" overflow="visible" style="display: block;" width="55" height="47" viewBox="0 0 55 47" fill="none" xmlns="http://www.w3.org/2000/svg">
<g id="Group 1171275114">
<path id="Vector" d="M11.5 23.5H23.5" stroke="#0A0A0A" stroke-width="3" stroke-linecap="round" stroke-linejoin="round"/>
<path id="Vector_2" d="M11.5 15.5H23.5" stroke="#0A0A0A" stroke-width="3" stroke-linecap="round" stroke-linejoin="round"/>
<path id="Vector_3" d="M42.5 31.5C48.5751 31.5 53.5 26.5751 53.5 20.5C53.5 14.4249 48.5751 9.5 42.5 9.5C36.4249 9.5 31.5 14.4249 31.5 20.5C31.5 26.5751 36.4249 31.5 42.5 31.5Z" stroke="#0A0A0A" stroke-width="3" stroke-linecap="round" stroke-linejoin="round"/>
<path id="Vector_4" d="M35.5 37.5H3.5C2.96957 37.5 2.46086 37.2893 2.08579 36.9142C1.71071 36.5391 1.5 36.0304 1.5 35.5V3.5C1.5 2.96957 1.71071 2.46086 2.08579 2.08579C2.46086 1.71071 2.96957 1.5 3.5 1.5H47.5C48.0304 1.5 48.5391 1.71071 48.9142 2.08579C49.2893 2.46086 49.5 2.96957 49.5 3.5V12.015" stroke="#0A0A0A" stroke-width="3" stroke-linecap="round" stroke-linejoin="round"/>
<path id="Vector_5" d="M35.5 28.985V45.5L42.5 41.5L49.5 45.5V28.985" stroke="#0A0A0A" stroke-width="3" stroke-linecap="round" stroke-linejoin="round"/>
</g>
</svg>
