<svg width="16" height="15" viewBox="0 0 16 15" fill="none" xmlns="http://www.w3.org/2000/svg">
<path d="M0.924011 7.60366C1.42312 7.59645 1.94045 7.59041 2.43873 7.60272C3.83227 7.63715 5.18378 8.24041 6.18134 9.16786C7.24529 10.1576 7.86023 11.5109 7.89266 12.9339C7.90126 13.5038 7.88384 14.0783 7.88992 14.647L7.85653 14.6686L7.83777 14.6604C7.8379 14.172 7.50105 13.2149 7.30829 12.7307C7.0668 12.1241 6.57793 11.3226 6.15434 10.8061C4.74527 9.05502 2.66944 7.91478 0.384763 7.63694C0.4683 7.58064 0.768222 7.61936 0.924011 7.60366Z" fill="#4D4D4D"/>
<path d="M7.14391 2.46457C7.3937 1.94008 7.62347 1.26636 7.77698 0.704068C7.83216 0.501903 7.82314 0.201684 7.87627 0C7.89563 0.378819 7.89081 0.795139 7.89252 1.17765C7.89476 1.67877 7.91642 2.3997 7.77931 2.88933C7.75863 3.08466 7.64719 3.33341 7.5804 3.52097C7.2805 4.36305 6.82262 5.01588 6.16579 5.65088C4.84841 6.92446 3.14707 7.28958 1.33648 7.20075C0.921551 7.18041 0.445289 7.24586 0.0273435 7.23939C0.281421 7.16197 0.583437 7.12486 0.850041 7.0888C1.51122 6.99941 2.04393 6.82008 2.65877 6.58195C4.46892 5.88084 6.0073 4.53398 6.91824 2.8762C6.99407 2.73821 7.06582 2.6015 7.14391 2.46457Z" fill="#4D4D4D"/>
<path d="M7.14252 2.46457C7.39232 1.94008 7.62208 1.26636 7.77559 0.704068C7.83078 0.501903 7.82175 0.201684 7.87488 0C7.89425 0.378819 7.88943 0.795139 7.89113 1.17765C7.89338 1.67877 7.91504 2.3997 7.77793 2.88933C7.73733 2.63207 7.87542 2.33333 7.83295 2.07027C7.81898 1.98376 7.55007 1.88227 7.4539 1.82271C7.38721 1.96929 7.27669 2.38992 7.14252 2.46457Z" fill="#4D4D4D"/>
<path d="M8.08588 0C8.15398 0.0606424 8.28212 0.688641 8.31243 0.814415C8.8673 3.11642 10.5213 5.1137 12.694 6.20764C13.1511 6.43779 13.6755 6.59814 14.1574 6.77321C14.3976 6.86047 15.7567 7.05307 15.7926 7.12652C15.3896 7.11431 14.9863 7.10558 14.5829 7.10035C13.3224 7.09221 12.3267 7.0856 11.1724 6.46852C10.7653 6.25084 10.5739 6.15045 10.2012 5.85386C8.96007 4.8634 8.20836 3.41762 8.12924 1.8688C8.0939 1.26499 8.1471 0.607742 8.08588 0Z" fill="#4D4D4D"/>
<path d="M11.9645 7.95104C12.0439 7.96527 12.1035 7.93631 12.1791 7.90912C12.2563 8.02722 12.5558 8.46033 12.5679 8.5655C12.511 8.65325 12.4241 8.60271 12.3787 8.72266C12.2081 8.86422 11.9451 8.99903 11.7566 9.12808C10.1102 10.2554 8.90194 11.981 8.42876 13.8692C8.38036 14.0623 8.31605 14.2812 8.28453 14.4787L8.21478 14.431C8.24669 14.0334 8.21319 13.5178 8.22666 13.1111C8.26126 12.0662 8.48109 11.1544 9.05091 10.2537C9.53965 9.48115 10.1992 8.85004 11.0042 8.38478C11.3206 8.20191 11.6029 8.04309 11.9645 7.95104Z" fill="#4D4D4D"/>
<path d="M11.9648 7.9517C12.7905 7.5855 13.6049 7.59955 14.4822 7.5989C14.8652 7.59911 15.2483 7.59542 15.6313 7.58783L15.6724 7.64495C14.8582 7.74578 13.9355 7.99558 13.1913 8.33378C12.9206 8.45687 12.6479 8.59438 12.379 8.72333C12.4244 8.60338 12.5113 8.65392 12.5682 8.56616C12.5561 8.461 12.2565 8.02788 12.1794 7.90979C12.1038 7.93697 12.0442 7.96594 11.9648 7.9517Z" fill="#4D4D4D"/>
<path d="M0 7.57514C0.295086 7.58223 0.634201 7.58315 0.925265 7.60457C0.769476 7.62026 0.469554 7.58155 0.386017 7.63785C0.286284 7.64846 0.0974725 7.60362 0 7.57514Z" fill="#4D4D4D"/>
<path d="M8.21706 14.4314L8.28681 14.4792C8.26072 14.6134 8.23214 14.7472 8.20106 14.8805C8.18741 14.7339 8.20038 14.5775 8.21706 14.4314Z" fill="#4D4D4D"/>
<path d="M7.83781 14.6608L7.85656 14.669L7.88996 14.6473C7.88966 14.7648 7.88781 14.8823 7.8844 14.9998C7.85758 14.8955 7.82797 14.7684 7.83781 14.6608Z" fill="#4D4D4D"/>
<path d="M15.6327 7.58759C15.7528 7.58896 15.8809 7.58844 16 7.5937C15.8742 7.62019 15.8017 7.63348 15.6739 7.6447L15.6327 7.58759Z" fill="#4D4D4D"/>
</svg>
